<mxfile host="Electron" modified="2024-05-15T22:57:03.382Z" agent="Mozilla/5.0 (Windows NT 10.0; Win64; x64) AppleWebKit/537.36 (KHTML, like Gecko) draw.io/24.4.0 Chrome/120.0.6099.109 Electron/28.1.0 Safari/537.36" etag="vay4g98YPyrVe1QiqdDg" version="24.4.0" type="device">
  <diagram name="Page-1" id="07iFgu0W-vfwiLsWVeu_">
    <mxGraphModel dx="864" dy="525" grid="1" gridSize="10" guides="1" tooltips="1" connect="1" arrows="1" fold="1" page="1" pageScale="1" pageWidth="827" pageHeight="1169" math="0" shadow="0">
      <root>
        <mxCell id="0" />
        <mxCell id="1" parent="0" />
        <mxCell id="-3RAAPFy1e7eWXhKGy_j-1" value="" style="rounded=0;whiteSpace=wrap;html=1;" vertex="1" parent="1">
          <mxGeometry x="210" y="110" width="590" height="380" as="geometry" />
        </mxCell>
        <mxCell id="-3RAAPFy1e7eWXhKGy_j-3" value="Block List" style="rounded=0;whiteSpace=wrap;html=1;" vertex="1" parent="1">
          <mxGeometry x="210" y="220" width="200" height="270" as="geometry" />
        </mxCell>
        <mxCell id="-3RAAPFy1e7eWXhKGy_j-5" value="Block Transactions" style="rounded=0;whiteSpace=wrap;html=1;" vertex="1" parent="1">
          <mxGeometry x="410" y="220" width="390" height="270" as="geometry" />
        </mxCell>
        <mxCell id="-3RAAPFy1e7eWXhKGy_j-6" value="Block Info and hash verification" style="rounded=0;whiteSpace=wrap;html=1;" vertex="1" parent="1">
          <mxGeometry x="210" y="110" width="590" height="110" as="geometry" />
        </mxCell>
      </root>
    </mxGraphModel>
  </diagram>
</mxfile>
